<?xml version="1.0" encoding="utf-8"?>
<!-- Generator: Adobe Illustrator 17.0.0, SVG Export Plug-In . SVG Version: 6.00 Build 0)  -->
<!DOCTYPE svg PUBLIC "-//W3C//DTD SVG 1.1//EN" "http://www.w3.org/Graphics/SVG/1.1/DTD/svg11.dtd">
<svg version="1.1" id="Capa_1" xmlns="http://www.w3.org/2000/svg" xmlns:xlink="http://www.w3.org/1999/xlink" x="0px" y="0px"
	 width="498.455px" height="498.455px" viewBox="0 0 498.455 498.455" enable-background="new 0 0 498.455 498.455"
	 xml:space="preserve">
<g>
	<g>
		<path fill="#4D4D4F" d="M492.201,111.423L389.768,42.398c-8.338-5.278-15.146-1.53-15.146,8.338v27.333
			c-85.223,0.459-154.225,69.691-154.225,155.065c0,14.917,2.142,29.376,6.12,43.07c18.513-64.413,77.8-111.614,148.105-111.996
			v29.333c0,9.945,6.809,13.617,15.146,8.338l102.434-71.025C500.615,125.346,500.463,116.702,492.201,111.423z"/>
		<path fill="#4D4D4F" d="M376.533,379.173c0,11.858-9.717,21.497-21.496,21.497H75.276c-11.934,0-21.497-9.716-21.497-21.497
			V207.048c0-11.857,9.715-21.497,21.497-21.497h93.399c5.891-19.813,14.382-38.021,25.475-53.779H21.496
			C9.639,131.772,0,141.335,0,153.269v279.685c0,11.857,9.715,21.496,21.496,21.496h387.32c11.857,0,21.496-9.562,21.496-21.496
			V232.683l-53.779,34.196L376.533,379.173L376.533,379.173z"/>
	</g>
</g>
</svg>
