<?xml version="1.0" encoding="utf-8"?>
<!-- Generator: Adobe Illustrator 17.0.0, SVG Export Plug-In . SVG Version: 6.00 Build 0)  -->
<!DOCTYPE svg PUBLIC "-//W3C//DTD SVG 1.1//EN" "http://www.w3.org/Graphics/SVG/1.1/DTD/svg11.dtd">
<svg version="1.1" id="Capa_1" xmlns="http://www.w3.org/2000/svg" xmlns:xlink="http://www.w3.org/1999/xlink" x="0px" y="0px"
	 width="573px" height="228px" viewBox="0 0 573 228" enable-background="new 0 0 573 228" xml:space="preserve">
<g>
	<g>
		<path d="M355.67,109.405c7.091,0.314,13.899,0.824,20.363,1.195l-48.229,48.215c-2.636,2.633-2.636,6.909,0,9.545
			c1.32,1.32,3.048,1.978,4.776,1.978s3.453-0.658,4.773-1.978l61.169-61.159c1.266-1.266,1.978-2.984,1.978-4.773
			c0-1.789-0.712-3.507-1.978-4.773L337.36,36.486c-2.633-2.636-6.909-2.636-9.545,0c-2.636,2.636-2.636,6.909,0,9.545
			l50.382,50.389c-6.879-0.233-14.24-0.604-21.936-0.945c-55.101-2.423-123.689-5.502-160.06,29.304
			c-15.729,15.05-23.701,35.889-23.701,62c0,3.726,3.024,6.713,6.75,6.713s6.75-3.024,6.75-6.75
			c0-22.601,6.389-39.699,19.536-52.286C237.743,103.64,305.906,107.217,355.67,109.405z"/>
	</g>
</g>
</svg>
