<?xml version="1.0" encoding="utf-8"?>
<!-- Generator: Adobe Illustrator 17.0.0, SVG Export Plug-In . SVG Version: 6.00 Build 0)  -->
<!DOCTYPE svg PUBLIC "-//W3C//DTD SVG 1.1//EN" "http://www.w3.org/Graphics/SVG/1.1/DTD/svg11.dtd">
<svg version="1.1" id="Capa_1" xmlns="http://www.w3.org/2000/svg" xmlns:xlink="http://www.w3.org/1999/xlink" x="0px" y="0px"
	 width="1224px" height="792px" viewBox="0 0 1224 792" enable-background="new 0 0 1224 792" xml:space="preserve">
<g>
	<g>
		<path fill="#98D82A" d="M485.614,322.915c0-10.791-8.829-19.62-19.62-19.62H308.705c-10.791,0-19.62,8.829-19.62,19.62
			c0,10.791,8.829,19.62,19.62,19.62h157.288C476.784,342.535,485.614,333.706,485.614,322.915z"/>
		<path fill="#98D82A" d="M915.295,303.295H758.007c-10.791,0-19.62,8.829-19.62,19.62c0,10.791,8.829,19.62,19.62,19.62h157.288
			c10.791,0,19.62-8.829,19.62-19.62C934.915,312.124,926.249,303.295,915.295,303.295z"/>
		<path fill="#98D82A" d="M612,196.528c10.791,0,19.62-8.829,19.62-19.62V19.62C631.62,8.829,622.791,0,612,0
			s-19.62,8.829-19.62,19.62v157.288C592.38,187.699,601.209,196.528,612,196.528z"/>
		<path fill="#98D82A" d="M715.169,239.366c5.069,0,9.974-1.962,13.898-5.723l111.344-111.344c7.685-7.685,7.685-20.111,0-27.795
			c-7.685-7.685-20.111-7.685-27.795,0L701.272,205.848c-7.685,7.685-7.685,20.111,0,27.795
			C705.196,237.404,710.264,239.366,715.169,239.366z"/>
		<path fill="#98D82A" d="M494.933,233.643c3.761,3.761,8.829,5.723,13.898,5.723c5.069,0,9.974-1.962,13.898-5.723
			c7.685-7.685,7.685-20.111,0-27.795L411.384,94.504c-7.685-7.685-20.111-7.685-27.795,0c-7.685,7.685-7.685,20.111,0,27.795
			L494.933,233.643z"/>
		<path fill="#98D82A" d="M847.769,446.685c-14.879-12.753-33.681-19.784-52.811-19.784h-17.822h-64.093h-30.411v-79.298
			c0-37.932-11.282-65.564-33.681-82.078c-35.316-25.833-83.222-11.282-85.348-10.628c-8.175,2.616-13.734,10.137-13.734,18.639
			v95.648c0,29.103-13.898,53.792-41.529,73.576c-20.928,15.042-42.347,21.909-45.126,22.727l-1.962,0.491
			c-7.358-8.339-18.149-13.571-30.248-13.571h-74.557c-22.236,0-40.385,18.149-40.385,40.385v244.598
			c0,22.236,18.149,40.385,40.385,40.385h74.884c9.81,0,18.966-3.597,25.833-9.483C472.206,783.007,492.644,792,514.717,792h74.393
			h7.685h152.22c23.544,0,44.309-5.723,60.168-16.35c20.274-13.734,32.864-35.48,36.461-63.275l30.248-188.026
			C880.633,495.245,869.841,465.488,847.769,446.685z M432.476,737.391c0,0.654-0.491,1.145-1.145,1.145h-74.884
			c-0.654,0-1.145-0.49-1.145-1.145V492.793c0-0.654,0.491-1.145,1.145-1.145h74.884c0.654,0,1.145,0.49,1.145,1.145V737.391z
			 M837.141,518.299l-30.248,188.353c0,0.164,0,0.491-0.164,0.818c-1.308,11.282-5.559,45.453-57.716,45.453h-152.22h-7.685h-74.393
			c-20.928,0-39.24-15.696-42.51-36.461c-0.164-0.818-0.327-1.635-0.491-2.289V503.911l1.145-0.327c0.327,0,0.491-0.163,0.818-0.163
			c1.145-0.327,28.94-8.175,56.571-27.959c38.423-27.305,58.86-64.092,58.86-106.276v-79.462c10.791-1.145,25.67-0.654,36.624,7.358
			c11.772,8.666,17.658,25.67,17.658,50.358v98.918c0,10.791,8.829,19.62,19.62,19.62h50.031h64.093h17.822
			c9.81,0,19.457,3.761,27.305,10.301C834.035,486.416,839.594,502.439,837.141,518.299z"/>
	</g>
</g>
</svg>
